<?xml version="1.0" standalone="no"?><!DOCTYPE svg PUBLIC "-//W3C//DTD SVG 1.1//EN" "http://www.w3.org/Graphics/SVG/1.1/DTD/svg11.dtd"><svg t="1726233306673" class="icon" viewBox="0 0 1024 1024" version="1.1" xmlns="http://www.w3.org/2000/svg" p-id="2153" xmlns:xlink="http://www.w3.org/1999/xlink" width="200" height="200"><path d="M342.876092 801.138379c-20.960098 16.691653-32.086512 36.42-32.086513 57.497989v46.013839c0 57.815074 86.303896 103.089049 196.494826 103.089049 110.182798 0 196.49889-45.286171 196.49889-103.089049v-46.013839c0-20.748709-10.772743-40.200623-31.098672-56.729669-0.65856-49.770071-71.311491-87.222628-164.932722-87.222628-93.145604-0.012196-163.493646 37.0623-164.875809 86.454308z" fill="#FFF700" p-id="2154"></path><path d="M507.743771 698.415197c-44.517851 0-86.881153 8.597868-119.28475 24.212247-17.61445 8.484043-31.814145 18.785224-42.20476 30.61898-10.561353 12.02482-17.053455 25.606606-19.081982 39.729062-7.536855 6.691296-13.837893 13.862284-18.838072 21.43166-9.162929 13.886675-13.805371 28.75306-13.805371 44.208896v46.001644c0 19.57387 7.691332 38.692439 22.244697 55.270267 11.976038 13.634633 28.444106 25.565954 48.952969 35.444356 38.355029 18.480335 88.629183 28.655495 141.557903 28.655495 52.932785 0 103.206939-10.17516 141.557903-28.655495 20.512928-9.878402 36.985061-21.805657 48.952968-35.444356 14.553365-16.577828 22.252828-35.684202 22.252828-55.270267v-46.001644c0-15.228186-4.508291-29.907573-13.419179-43.627575-4.829441-7.43929-10.919089-14.488323-18.191707-21.090184-1.882181-14.472062-8.423065-28.370932-19.216133-40.651859-10.39468-11.833756-24.586244-22.134937-42.200695-30.61898-32.395466-15.614379-74.758769-24.212247-119.276619-24.212247z m-148.737022 104.178519c0-39.574585 66.595875-71.657032 148.737022-71.657032s148.737021 32.082447 148.737021 71.657032v7.309204c19.582 13.89074 31.045825 30.663697 31.045825 48.725318v46.005709c0 47.973259-80.70207 86.832371-180.238147 86.83237-99.540142 0-180.238147-38.871307-180.238147-86.83237v-46.005709c0-18.338054 11.825626-35.338661 31.956426-49.351357v-6.683165z" fill="#6E6E96" p-id="2155"></path><path d="M795.19713 178.002295l-9.492209 2.31309-26.484686 104.231367 21.378813-1.536641 18.655138-1.313055c12.358165-1.223621 33.045896-3.268409 38.871307 2.016333 1.337446 1.211425 2.016332 3.72371 2.016332 7.45555 0 49.52616-32.712551 195.494789-182.091871 275.148042-49.436726 25.04561-74.653074 47.204939-74.653074 65.709665 0 15.451772 6.776665 36.802128 21.65118 47.172417 8.63039 6.01241 18.69579 7.370182 28.32215 3.81721 236.1873-82.072038 333.763957-308.494762 310.803788-433.580532-4.764398-25.948082-17.451843-45.753667-37.696469-58.859826-44.091006-28.557931-108.556724-13.24031-111.280399-12.57362z" fill="#F7DF00" p-id="2156"></path><path d="M838.540142 157.009675c-25.317978 0-45.070716 4.666833-47.241525 5.199372l-18.947831 4.658703-4.813181 18.91531-18.537247 72.941631-10.345898 40.729097 42.017761-0.191063c6.427059-0.036587 13.11429-0.699212 20.187713-1.398424 6.853903-0.678886 13.939522-1.378098 20.01291-1.378098 1.077274 0 2.024463 0.020326 2.865956 0.069108-0.406519 8.130372-1.833399 22.391044-6.549014 41.895806-5.80102 23.984597-14.5493 47.672435-26.000929 70.413084a327.397876 327.397876 0 0 1-52.900264 76.059628c-24.781373 26.553794-54.249906 49.058663-87.612886 66.892634a450.788463 450.788463 0 0 0-35.570377 20.439755c-11.27276 7.244161-20.134866 13.841958-27.053812 20.167387-5.170916 4.723746-20.919447 19.094178-20.919447 39.590845 0 13.715937 3.931035 28.460366 10.776808 40.452665 10.419071 18.260815 26.777379 28.728669 44.855261 28.728669 5.317263 0 10.585744-0.930928 15.699748-2.748066 59.689124-20.748709 113.573163-51.07093 160.152064-90.141432a481.66355 481.66355 0 0 0 103.832978-121.467754c24.322007-40.546164 42.43241-84.722539 52.339268-127.748467 9.475948-41.143746 11.333738-80.084162 5.357915-112.609714l-0.004065-0.004065c-6.093714-33.196308-24.114683-58.737871-52.091292-73.864428-19.163286-10.341833-42.562496-15.598118-69.510614-15.602183z m-58.014268 109.739693l18.537248-72.949761s17.370539-4.268445 39.47702-4.268445c34.310169 0.004065 80.006924 10.288985 89.657675 62.847774 1.918768 10.467854 2.898478 21.976395 2.886282 34.306103-0.105695 116.544814-88.499097 306.413387-303.31978 381.078656-1.707378 0.630104-3.370039 0.930928-4.979853 0.930928-13.488287 0-23.122777-20.675535-23.122777-36.672042 0-17.899013 66.04301-51.363624 66.04301-51.363624 157.78206-84.133087 190.706001-238.463804 190.706-289.498148 0-22.366653-16.62661-27.187963-35.533789-27.187963-14.191564 0.00813-29.671792 2.72774-40.351036 2.776522z m43.330817 23.643121l-0.012196-0.052847c0.004065 0 0.00813 0.016261 0.012196 0.052847z m5.670934 6.935207l-0.016261-0.004065 0.016261 0.004065z m-190.945846 401.107827c0.142282-0.052847 0.280498-0.093499 0.422779-0.154477a7.479942 7.479942 0 0 1-0.422779 0.154477z" fill="#6E6E96" p-id="2157"></path><path d="M117.559099 190.551523c-20.269017 13.11429-32.964592 32.928006-37.733056 58.884218-22.956105 125.089835 74.612422 351.504428 311.08835 433.694357 9.341797 3.447278 19.399067 2.089506 28.033522-3.931035 14.87045-10.37842 21.647115-31.728776 21.647115-47.172417 0-18.504726-25.212283-40.664054-74.953897-65.868207-149.078497-79.498775-181.795113-225.467405-181.795113-274.9895 0-3.735906 0.678886-6.244126 2.012267-7.45555 5.833542-5.280676 26.517208-3.235888 38.875372-2.016333l18.659204 1.313055c5.203438 0.365867 9.740185-1.809008 13.085833-5.821346 3.345648-3.996078 4.03673-9.394645 2.756196-14.451736l-18.541313-72.94976a16.240418 16.240418 0 0 0-11.882538-11.780909c-2.707414-0.66669-67.083698-16.029028-111.251942 12.545163z" fill="#FFE600" p-id="2158"></path><path d="M185.459898 157.009675c-26.956248 0-50.351392 5.256285-69.530939 15.630639C87.936089 187.766871 69.92325 213.308434 63.825471 246.508807 57.857779 279.03436 59.711503 317.974775 69.191517 359.118522c9.910923 43.025927 28.013196 87.202303 52.339268 127.748466 27.582286 45.956926 62.514429 86.820175 103.837043 121.467755 46.554509 39.042045 100.397896 69.360202 160.050434 90.104845a46.708986 46.708986 0 0 0 15.801378 2.784652c18.081947 0 34.43619-10.467854 44.855261-28.724603 6.857969-11.996364 10.776808-26.740793 10.776808-40.45673 0-20.496667-15.736335-34.867099-20.915382-39.590846-6.918946-6.325429-15.776986-12.923226-27.053812-20.167387a451.894194 451.894194 0 0 0-35.570377-20.439754c-33.35485-17.833971-62.831513-40.326644-87.608821-66.892634a327.345029 327.345029 0 0 1-52.896198-76.059628c-11.455694-22.74878-20.212104-46.432553-26.000929-70.413085-4.715616-19.500697-6.154691-33.769499-6.55308-41.895806 0.841493-0.044717 1.788682-0.069108 2.857826-0.069108 6.081518 0 13.167137 0.699212 20.02104 1.378098 7.077489 0.703277 13.764719 1.361837 20.195844 1.398424h0.146346a32.541813 32.541813 0 0 0 25.630997-12.496382 32.533683 32.533683 0 0 0 5.89452-28.033521l-18.537248-72.953826a32.537748 32.537748 0 0 0-23.769142-23.578079c-2.166744-0.544735-21.927613-5.219699-47.233395-5.219698zM92.924072 286.69317c-0.00813-12.329709 0.963449-23.83825 2.886282-34.306104 9.646686-52.554723 55.33531-62.847774 89.649544-62.847774 22.106481 0 39.481085 4.268445 39.481086 4.268445l18.541313 72.949761c-10.687374-0.056913-26.171667-2.776522-40.367296-2.776522-18.899049 0-35.521594 4.829441-35.521595 27.187963 0 51.034344 32.91581 205.360996 190.697871 289.498148 0 0 66.04301 33.452415 66.04301 51.363624 0 15.996506-9.622295 36.672042-23.118713 36.672042-1.609814 0-3.268409-0.288628-4.971722-0.930927C181.423169 593.106556 93.033832 403.237984 92.924072 286.69317z m107.219278 3.691189l0.004065-0.044717-0.004065 0.044717z" fill="#6E6E96" p-id="2159"></path><path d="M396.251982 667.76776c16.029028 5.91078 28.082304-17.846166 28.082305-35.745179 0-17.890883-66.04301-51.363624-66.04301-51.363624-132.602299-70.709843-177.002259-190.978368-187.799393-257.858806h-0.004065s21.350356 237.634506 146.4158 309.34032a491.334628 491.334628 0 0 0 79.348363 35.627289z" fill="#FFFF00" p-id="2160"></path><path d="M125.404907 240.866329c31.200302-36.814323 91.84881-20.44382 91.84881-20.44382 4.4839-7.97996 6.801056-17.045324 7.284813-26.720466-7.158792-1.650465-113.402426-24.809829-128.724111 58.685023-12.56549 68.45773 15.228186 181.591854 96.019691 276.908267C92.56227 366.069989 94.517625 277.30259 125.404907 240.866329z" fill="#FFFF00" opacity=".46" p-id="2161"></path><path d="M898.599199 240.870394c-31.200302-36.814323-91.84881-20.44382-91.84881-20.443819-4.487965-7.97996-6.805121-17.045324-7.284814-26.720467 7.154727-1.650465 113.39836-24.809829 128.715981 58.685023 12.569555 68.45773-15.224121 181.591854-96.015625 276.908268 99.275905-163.225344 97.324615-251.992743 66.433268-288.429005z" fill="#FFFF00" opacity=".55" p-id="2162"></path><path d="M689.68523 903.768062c0 47.973259-80.698005 86.836436-180.238146 86.836436-99.536077 0-180.234082-38.871307-180.234082-86.836436V857.754223h360.472228v46.013839z" fill="#FFE600" p-id="2163"></path><path d="M329.217067 857.750158a180.234082 86.832371 0 1 0 360.468163 0 180.234082 86.832371 0 1 0-360.468163 0Z" fill="#FFFF00" p-id="2164"></path><path d="M658.647536 839.684472c0 39.582715-66.595875 71.665162-148.737021 71.665162-82.145211 0-148.741087-32.082447-148.741087-71.665162v-37.968837h297.478108v37.968837z" fill="#FFE600" p-id="2165"></path><path d="M361.173493 801.715635a148.737021 71.657032 0 1 0 297.474043 0 148.737021 71.657032 0 1 0-297.474043 0Z" fill="#FFFF00" p-id="2166"></path><path d="M443.521964 504.241593l-7.297009 2.695218-2.483828 7.366117c-25.070001 74.380706-47.176482 146.712559-47.176483 211.397797 0 20.512928 2.268374 40.241275 7.325465 59.034629 3.211497 31.997078 54.188928 42.895842 85.064015 46.513857 45.448778 5.337589 134.399111 2.62611 146.082455-45.778058 5.0327-18.573834 7.268552-38.163965 7.268553-58.571199 0-64.73402-22.289414-137.712237-47.570806-212.828742l-2.487893-7.410834-7.345791-2.678957c-43.607249-15.903007-87.80395-15.817638-131.378678 0.260172z" fill="#FFE600" p-id="2167"></path><path d="M509.532452 475.838139c-23.895163 0.004065-48.001715 4.426987-71.636705 13.146811l-14.598083 5.374176-4.971722 14.744429c-33.610957 99.71088-61.977824 196.039524-40.659989 278.107497 1.219556 9.545056 6.008345 23.28132 21.821917 35.106946 8.605999 6.439254 19.972258 11.890669 33.773565 16.179439 22.626825 7.057163 52.335203 11.097957 81.490716 11.097958 19.151091 0 47.209004-1.74803 72.132659-10.04914 37.188321-12.382556 49.831049-33.789825 53.835256-49.798527 10.325572-38.066401 10.471919-82.433839 0.434975-135.626797-8.276718-43.916203-22.391044-89.824347-41.038051-145.240961l-4.992049-14.817603-14.679386-5.36198c-23.415471-8.52876-47.274047-12.862248-70.913103-12.862248z m-106.731455 249.785347c0.00813-61.323329 21.163358-131.394938 46.343119-206.121185 20.126735-7.427095 40.253471-11.134544 60.384271-11.13861 19.923476 0 39.851017 3.642407 59.774494 10.910959 25.317978 75.254721 46.794355 145.797892 46.790289 207.352937 0 19.24459-2.109831 37.623295-6.853903 54.973509-5.963628 24.984632-49.570877 35.485008-94.491181 35.485007-51.599405 0-104.926513-13.841958-104.926513-35.485007-4.866028-17.679493-7.024641-36.383414-7.020576-55.97761z m238.008503 63.807158c0.00813-0.032521 0.016261-0.065043 0.028457-0.085369a0.349606 0.349606 0 0 0-0.028457 0.085369z" fill="#6E6E96" p-id="2168"></path><path d="M555.680443 807.093876v-187.42946h-82.628969v187.42946s36.537891 16.634741 82.628969 0z" fill="#FFF700" p-id="2169"></path><path d="M631.817309 667.76776c-16.029028 5.91078-28.086369-17.846166-28.086369-35.745179 0-17.890883 66.04301-51.363624 66.04301-51.363624 132.602299-70.713909 177.002259-190.978368 187.803458-257.858806 0 0-21.346291 237.634506-146.419866 309.34032a490.924044 490.924044 0 0 1-79.340233 35.627289z" fill="#FFFF00" p-id="2170"></path><path d="M175.719713 184.636678c0 4.101773 0.414649 8.402739 1.093535 12.959813a402.851791 402.851791 0 0 0-3.902578 56.237781c0 156.899915 81.913496 311.633085 85.828269 318.930094 0.170738 0.317084 0.349606 0.626039 0.54067 0.930928 29.387229 47.01794 112.62191 156.412092 250.334147 156.412092 130.492467 0 204.678044-83.076139 237.280835-132.590103 89.820282-136.427639 99.153949-323.869295 99.15395-395.810889 0-16.923369-0.520344-27.464396-0.621974-29.436011-0.252042-4.670899-2.552937-8.671042-5.890454-11.471955C817.014983 77.754811 678.619794 16.260744 509.443018 16.260744 322.310316 16.260744 175.719713 90.21867 175.719713 184.636678z" fill="#FAF200" p-id="2171"></path><path d="M509.443018 0c-89.556045 0-174.274519 16.95589-238.532912 47.745608-33.110939 15.85829-59.477735 34.761405-78.364589 56.152413-10.402811 11.789039-18.488465 24.338268-24.021183 37.306211-6.01241 14.089934-9.061299 28.700212-9.061299 43.436511 0 4.158685 0.276433 8.41087 0.849624 12.870379-5.524588 40.948617-4.707485 86.116898 2.435046 134.354393 5.845737 39.420108 15.911138 81.055741 29.931964 123.744259 23.777272 72.39283 50.599369 122.727962 51.73762 124.841859 0.341476 0.621973 0.699212 1.256142 1.085405 1.861855 18.106338 28.976645 49.180619 70.717974 94.369225 104.987491 23.765077 18.041295 49.09525 32.151555 75.291308 41.968979a268.078684 268.078684 0 0 0 94.45866 17.090041c60.286707 0 115.374041-16.82987 163.721296-50.026177 42.155978-28.940058 70.656996-64.851911 87.141325-89.885326 26.663554-40.489251 48.53832-88.747073 65.059235-143.427888 13.01266-43.103166 22.769106-90.348756 28.98071-140.427782 10.536962-84.986776 7.292943-148.554088 7.146597-151.208654a32.399532 32.399532 0 0 0-7.134401-18.638877c-6.301038-20.598297-18.675464-40.046146-36.920019-57.969551-19.90315-19.541349-46.326858-36.745215-78.527195-51.135973C676.066858 15.500554 594.519229 0 509.443018 0zM191.980457 184.640743C191.980457 100.625546 334.115616 32.521487 509.443018 32.521487c167.258008 0 304.193795 61.985954 316.482852 140.61478h3.256214s0.528474 9.707664 0.528474 26.56599c-0.004065 68.600012-8.662911 255.618889-96.397753 388.871617-32.167816 48.863534-102.267881 125.268703-223.694984 125.268703s-199.97869-90.271518-236.545036-148.769543c0 0-83.933893-156.485266-83.864785-311.913583 0.00813-18.70392 1.235817-37.387515 3.975752-55.794676a73.039195 73.039195 0 0 1-1.203295-12.724032z m666.072577-16.52498l-0.032521-0.186999 0.032521 0.186999z" fill="#6E6E96" p-id="2172"></path><path d="M733.312805 588.573874c109.292523-166.005931 95.869279-415.437607 95.869279-415.437607h-212.743373c0.276433 14.061478-0.44717 29.08234 2.333417 44.733306C705.702063 706.167506 509.609691 713.846642 509.609691 713.846642c121.431168 0 191.531233-76.417364 223.703114-125.272768z" fill="#6E6E96" opacity=".09" p-id="2173"></path><path d="M363.234543 319.686218c0.626039-14.012696 37.403775-84.397324 28.54167-146.549951H197.712369c-40.265666 176.404677 75.356351 391.944898 75.356351 391.944898 36.562282 58.50209 115.109804 148.769543 236.545036 148.769543-156.721046-25.57815-146.379214-394.164489-146.379213-394.16449z" fill="#FFFF00" p-id="2174"></path><path d="M192.004848 188.539256a318.783747 171.965494 0 1 0 637.567494 0 318.783747 171.965494 0 1 0-637.567494 0Z" fill="#FFFF99" p-id="2175"></path><path d="M510.788595 376.765494c-187.876631 0-335.044491-82.677751-335.044491-188.226238S322.911964 0.313019 510.788595 0.313019s335.044491 82.677751 335.044491 188.226237-147.16786 188.226237-335.044491 188.226238z m0-343.930988c-163.985534 0-302.523004 71.303361-302.523004 155.70475s138.53747 155.70475 302.523004 155.70475 302.523004-71.303361 302.523004-155.70475-138.53747-155.70475-302.523004-155.70475z" fill="#6E6E96" p-id="2176"></path><path d="M258.677962 175.689204a250.773187 109.930757 0 1 0 501.546374 0 250.773187 109.930757 0 1 0-501.546374 0Z" fill="#E0A800" p-id="2177"></path><path d="M509.451149 301.880704c-69.185399 0-134.476349-11.92319-183.856163-33.56624-53.640128-23.5171-83.181834-56.408519-83.181833-92.62526s29.541706-69.10816 83.181833-92.625261c49.379813-21.64305 114.670764-33.56624 183.856163-33.56624 69.181333 0 134.472284 11.92319 183.856162 33.56624 53.640128 23.5171 83.181834 56.408519 83.181834 92.625261s-29.541706 69.10816-83.181834 92.62526c-49.383878 21.64305-114.674829 33.56624-183.856162 33.56624z m0-219.861513c-64.790933 0-125.443506 10.947546-170.798785 30.830369-40.493317 17.752667-63.717724 40.655924-63.717724 62.839644 0 44.302396 96.312384 93.670013 234.516509 93.670013 64.786868 0 125.439441-10.947546 170.798785-30.83037 40.493317-17.752667 63.717724-40.655924 63.717724-62.839643 0-44.302396-96.312384-93.670013-234.516509-93.670013z" fill="#6E6E96" p-id="2178"></path><path d="M600.860919 858.396522v37.976967c35.139467-13.118355 57.786617-33.623153 57.786617-56.684952v-37.968836c0 23.065865-22.651216 43.570662-57.786617 56.676821zM587.364502 936.070029v46.017904c60.534683-14.0005 102.320729-43.806443 102.320728-78.332066v-46.009774c0 34.521559-41.790111 64.319371-102.320728 78.323936z" fill="#BF0000" opacity=".18" p-id="2179"></path><path d="M418.17553 857.994069v37.976967c-35.139467-13.110224-57.786617-33.615022-57.786617-56.676822v-37.968836c0 23.0618 22.651216 43.562532 57.786617 56.668691zM431.533731 937.809929v46.017904c-60.534683-14.0005-102.320729-43.806443-102.320729-78.323937v-46.017904c0 34.517493 41.794176 64.319371 102.320729 78.323937z" fill="#FFFF00" opacity=".71" p-id="2180"></path><path d="M510.788595 336.113635c-167.355573 0-304.486488-60.892419-317.657691-138.322015a72.852196 72.852196 0 0 0-1.126056 12.195557c0 83.128986 142.716481 150.517573 318.783747 150.517573s318.783747-67.388587 318.783747-150.517573c0-4.109903-0.443105-8.166958-1.126056-12.195557-13.163072 77.413335-150.302118 138.322015-317.657691 138.322015z" fill="#D49E00" opacity=".19" p-id="2181"></path><path d="M495.288041 430.303992c4.947331-10.024748 13.041116-10.024748 17.992513 0l16.73637 33.91178c4.947331 10.032879 18.041295 19.553544 29.110796 21.151163l37.428167 5.439218c11.065436 1.609814 13.565525 9.305211 5.557109 17.110368l-27.082268 26.399317c-8.008416 7.805157-13.008595 23.204081-11.118284 34.220735l6.394538 37.28182c1.890311 11.016654-4.658703 15.781052-14.557431 10.581678l-33.468676-17.598189c-9.898728-5.203438-26.086298-5.203438-35.98909 0l-33.476806 17.598189c-9.894662 5.199373-16.443677 0.434975-14.553366-10.581678l6.390473-37.28182c1.890311-11.016654-3.117998-26.415578-11.114219-34.220735l-27.082268-26.399317c-8.004351-7.805157-5.504262-15.496489 5.561174-17.110368l37.428167-5.435153c11.065436-1.609814 24.1594-11.118283 29.106731-21.151162l16.73637-33.915846z" fill="#FFFFFF" opacity=".49" p-id="2182"></path><path d="M495.288041 434.694393c4.947331-10.024748 13.041116-10.024748 17.992513 0l16.73637 33.91178c4.947331 10.028814 18.041295 19.553544 29.110796 21.151162l37.428167 5.439219c11.065436 1.609814 13.565525 9.305211 5.557109 17.110368l-27.082268 26.399317c-8.008416 7.805157-13.008595 23.204081-11.118284 34.2248l6.394538 37.277754c1.890311 11.016654-4.658703 15.776986-14.557431 10.585744l-33.468676-17.602255c-9.898728-5.203438-26.086298-5.203438-35.98909 0l-33.468676 17.602255c-9.898728 5.191242-16.447742 0.43091-14.55743-10.585744l6.386407-37.277754c1.890311-11.020719-3.117998-26.419643-11.114219-34.2248l-27.082268-26.399317c-8.004351-7.805157-5.504262-15.496489 5.561174-17.110368l37.428167-5.435153c11.065436-1.609814 24.1594-11.122349 29.106731-21.151163l16.73637-33.915845z" fill="#D49E00" p-id="2183"></path><path d="M563.050625 639.156982c-4.841636 0-9.83775-1.333381-14.850124-3.967621l-33.489002-17.610386c-1.86592-0.97971-5.589631-2.032593-10.419071-2.032593-4.833506 0-8.557216 1.052883-10.427202 2.036659l-33.468675 17.598189c-12.45573 6.544949-25.403347 4.634312-32.846702-4.191206-5.004244-5.939237-6.89049-14.297259-5.305068-23.529296l6.386407-37.277755c0.98784-5.752238-2.268374-15.760726-6.44332-19.838107l-27.078203-26.395252c-8.414935-8.20761-11.508541-18.244554-8.484043-27.5457 3.020433-9.301145 11.423172-15.606249 23.053669-17.297366l37.436297-5.435153c5.768499-0.837428 14.280998-7.024641 16.858326-12.25247l16.740436-33.915846c5.199373-10.536962 13.793176-16.585958 23.574013-16.585959 9.780837 0 18.37464 6.044931 23.578078 16.581893l16.73637 33.911781c2.585458 5.240025 11.093892 11.423172 16.854261 12.256536l37.440362 5.439218c11.634562 1.695183 20.041366 8.000286 23.057734 17.305497 3.020433 9.301145-0.073173 19.338089-8.488108 27.541634l-27.082268 26.399317c-4.174946 4.073316-7.427095 14.081804-6.44332 19.834042l6.394538 37.27369c1.585422 9.236102-0.296759 17.594125-5.305068 23.533361-4.443248 5.260351-10.829655 8.162893-17.980317 8.162893z m-136.208119-129.683495l18.041295 17.590059c11.784974 11.500411 18.573834 32.399532 15.793247 48.615558l-4.256249 24.846417 22.30161-11.728062c7.081554-3.72371 16.159114-5.772564 25.565954-5.772564s18.480335 2.048854 25.557823 5.772564l22.30161 11.728062-4.26438-24.842351c-2.784652-16.228222 4.008273-37.131408 15.797313-48.619624l18.041295-17.590059-24.935851-3.622081c-16.285135-2.353743-34.066258-15.272903-41.355136-30.049854l-11.150805-22.590238-11.150805 22.598369c-7.280748 14.76069-25.057806 27.679851-41.35107 30.049854l-24.935851 3.61395z" fill="#6E6E96" p-id="2184"></path><path d="M292.894631 375.769523s-1.304925 117.715588 40.651859 207.32448c0 0-73.173346-89.43409-97.564461-235.780781l56.912602 28.456301z" fill="#FFFFFF" p-id="2185"></path></svg>